<svg xmlns="http://www.w3.org/2000/svg" width="800" height="300" viewBox="0 0 800 300">
  <defs>
    <linearGradient id="cardBg" x1="0%" y1="0%" x2="100%" y2="100%">
      <stop offset="0%" style="stop-color:#161b22"/>
      <stop offset="100%" style="stop-color:#0d1117"/>
    </linearGradient>
  </defs>

  <!-- fundo -->
  <rect width="800" height="300" rx="12" fill="url(#cardBg)" stroke="#30363d" stroke-width="1"/>

  <!-- título -->
  <text x="24" y="36" font-family="monospace" font-size="14" fill="#58a6ff" font-weight="bold">⚡ GitHub Stats — davidteixeira23</text>
  <line x1="24" y1="46" x2="776" y2="46" stroke="#21262d" stroke-width="1"/>

  <!-- divisor vertical -->
  <line x1="400" y1="56" x2="400" y2="280" stroke="#21262d" stroke-width="1"/>

  <!-- LADO ESQUERDO -->

  <!-- Total de Commits -->
  <rect x="24" y="62" width="112" height="66" rx="8" fill="#0d1117" stroke="#21262d" stroke-width="1"/>
  <text x="80" y="84" text-anchor="middle" font-family="monospace" font-size="10" fill="#8b949e">Total Commits</text>
  <text x="80" y="110" text-anchor="middle" font-family="monospace" font-size="24" fill="#3fb950" font-weight="bold">132</text>

  <!-- Streak Atual -->
  <rect x="148" y="62" width="112" height="66" rx="8" fill="#0d1117" stroke="#21262d" stroke-width="1"/>
  <text x="204" y="84" text-anchor="middle" font-family="monospace" font-size="10" fill="#8b949e">🔥 Streak Atual</text>
  <text x="204" y="110" text-anchor="middle" font-family="monospace" font-size="24" fill="#f78166" font-weight="bold">8d</text>

  <!-- Streak Recorde -->
  <rect x="272" y="62" width="112" height="66" rx="8" fill="#0d1117" stroke="#21262d" stroke-width="1"/>
  <text x="328" y="84" text-anchor="middle" font-family="monospace" font-size="10" fill="#8b949e">🏆 Recorde</text>
  <text x="328" y="110" text-anchor="middle" font-family="monospace" font-size="24" fill="#e3b341" font-weight="bold">8d</text>

  <!-- Tabela de linguagens -->
  <text x="24" y="152" font-family="monospace" font-size="11" fill="#8b949e" font-weight="bold">Linguagens</text>
  <line x1="24" y1="158" x2="380" y2="158" stroke="#21262d" stroke-width="1"/>
  
  <rect x="24" y="168" width="9" height="9" rx="2" fill="#e07b39"/>
  <text x="38" y="178" font-family="monospace" font-size="12" fill="#c9d1d9">Java</text>
  <text x="380" y="178" text-anchor="end" font-family="monospace" font-size="12" fill="#58a6ff" font-weight="bold">85%</text>
  <rect x="180" y="169" width="145" height="7" rx="3" fill="#e07b39" opacity="0.5"/>
  
  <rect x="24" y="188" width="9" height="9" rx="2" fill="#f0c020"/>
  <text x="38" y="198" font-family="monospace" font-size="12" fill="#c9d1d9">JavaScript</text>
  <text x="380" y="198" text-anchor="end" font-family="monospace" font-size="12" fill="#58a6ff" font-weight="bold">7%</text>
  <rect x="180" y="189" width="12" height="7" rx="3" fill="#f0c020" opacity="0.5"/>
  
  <rect x="24" y="208" width="9" height="9" rx="2" fill="#00599C"/>
  <text x="38" y="218" font-family="monospace" font-size="12" fill="#c9d1d9">C++</text>
  <text x="380" y="218" text-anchor="end" font-family="monospace" font-size="12" fill="#58a6ff" font-weight="bold">4%</text>
  <rect x="180" y="209" width="7" height="7" rx="3" fill="#00599C" opacity="0.5"/>
  
  <rect x="24" y="228" width="9" height="9" rx="2" fill="#7F52FF"/>
  <text x="38" y="238" font-family="monospace" font-size="12" fill="#c9d1d9">PHP</text>
  <text x="380" y="238" text-anchor="end" font-family="monospace" font-size="12" fill="#58a6ff" font-weight="bold">2%</text>
  <rect x="180" y="229" width="3" height="7" rx="3" fill="#7F52FF" opacity="0.5"/>
  
  <rect x="24" y="248" width="9" height="9" rx="2" fill="#73726c"/>
  <text x="38" y="258" font-family="monospace" font-size="12" fill="#c9d1d9">Hack</text>
  <text x="380" y="258" text-anchor="end" font-family="monospace" font-size="12" fill="#58a6ff" font-weight="bold">1%</text>
  <rect x="180" y="249" width="2" height="7" rx="3" fill="#73726c" opacity="0.5"/>
  
  <rect x="24" y="268" width="9" height="9" rx="2" fill="#73726c"/>
  <text x="38" y="278" font-family="monospace" font-size="12" fill="#c9d1d9">HTML/CSS</text>
  <text x="380" y="278" text-anchor="end" font-family="monospace" font-size="12" fill="#58a6ff" font-weight="bold">1%</text>
  <rect x="180" y="269" width="2" height="7" rx="3" fill="#73726c" opacity="0.5"/>
  

  <!-- LADO DIREITO: pizza -->
  <text x="600" y="58" text-anchor="middle" font-family="monospace" font-size="11" fill="#8b949e">Distribuição</text>
  <path d="M600,155 L600.00,73.00 A82,82 0 1 1 533.66,106.80 Z" fill="#e07b39" stroke="#0d1117" stroke-width="2"/><text x="623.08" y="204.30" text-anchor="middle" font-family="monospace" font-size="11" fill="#fff" font-weight="bold">85%</text><path d="M600,155 L533.66,106.80 A82,82 0 0 1 560.50,83.14 Z" fill="#f0c020" stroke="#0d1117" stroke-width="2"/><path d="M600,155 L560.50,83.14 A82,82 0 0 1 579.61,75.58 Z" fill="#00599C" stroke="#0d1117" stroke-width="2"/><path d="M600,155 L579.61,75.58 A82,82 0 0 1 589.72,73.65 Z" fill="#7F52FF" stroke="#0d1117" stroke-width="2"/><path d="M600,155 L589.72,73.65 A82,82 0 0 1 594.85,73.16 Z" fill="#73726c" stroke="#0d1117" stroke-width="2"/><path d="M600,155 L594.85,73.16 A82,82 0 0 1 600.00,73.00 Z" fill="#73726c" stroke="#0d1117" stroke-width="2"/>
  
      <rect x="420" y="243" width="9" height="9" rx="2" fill="#e07b39"/>
      <text x="433" y="251" font-family="monospace" font-size="11" fill="#8b949e">Java 85%</text>
      <rect x="420" y="261" width="9" height="9" rx="2" fill="#f0c020"/>
      <text x="433" y="269" font-family="monospace" font-size="11" fill="#8b949e">JavaScript 7%</text>
      <rect x="420" y="279" width="9" height="9" rx="2" fill="#00599C"/>
      <text x="433" y="287" font-family="monospace" font-size="11" fill="#8b949e">C++ 4%</text>
      <rect x="590" y="243" width="9" height="9" rx="2" fill="#7F52FF"/>
      <text x="603" y="251" font-family="monospace" font-size="11" fill="#8b949e">PHP 2%</text>
      <rect x="590" y="261" width="9" height="9" rx="2" fill="#73726c"/>
      <text x="603" y="269" font-family="monospace" font-size="11" fill="#8b949e">Hack 1%</text>
      <rect x="590" y="279" width="9" height="9" rx="2" fill="#73726c"/>
      <text x="603" y="287" font-family="monospace" font-size="11" fill="#8b949e">HTML/CSS 1%</text>

  <!-- rodapé -->
  <text x="784" y="292" text-anchor="end" font-family="monospace" font-size="10" fill="#484f58">Atualizado via GitHub Actions</text>
</svg>