<svg xmlns="http://www.w3.org/2000/svg" width="800" height="260" viewBox="0 0 800 260">
  <defs>
    <linearGradient id="cardBg" x1="0%" y1="0%" x2="100%" y2="100%">
      <stop offset="0%" style="stop-color:#161b22"/>
      <stop offset="100%" style="stop-color:#0d1117"/>
    </linearGradient>
  </defs>

  <!-- fundo -->
  <rect width="800" height="260" rx="12" fill="url(#cardBg)" stroke="#30363d" stroke-width="1"/>

  <!-- título -->
  <text x="24" y="36" font-family="monospace" font-size="14" fill="#58a6ff" font-weight="bold">⚡ GitHub Stats — davidteixeira23</text>
  <line x1="24" y1="46" x2="776" y2="46" stroke="#21262d" stroke-width="1"/>

  <!-- métricas: 3 cards -->
  <!-- Total de Commits -->
  <rect x="24" y="62" width="160" height="72" rx="8" fill="#0d1117" stroke="#21262d" stroke-width="1"/>
  <text x="104" y="88" text-anchor="middle" font-family="monospace" font-size="11" fill="#8b949e">Total de Commits</text>
  <text x="104" y="116" text-anchor="middle" font-family="monospace" font-size="26" fill="#3fb950" font-weight="bold">127</text>

  <!-- Streak Atual -->
  <rect x="200" y="62" width="160" height="72" rx="8" fill="#0d1117" stroke="#21262d" stroke-width="1"/>
  <text x="280" y="88" text-anchor="middle" font-family="monospace" font-size="11" fill="#8b949e">🔥 Streak Atual</text>
  <text x="280" y="116" text-anchor="middle" font-family="monospace" font-size="26" fill="#f78166" font-weight="bold">8 dias</text>

  <!-- Streak Mais Longo -->
  <rect x="376" y="62" width="160" height="72" rx="8" fill="#0d1117" stroke="#21262d" stroke-width="1"/>
  <text x="456" y="88" text-anchor="middle" font-family="monospace" font-size="11" fill="#8b949e">🏆 Streak Recorde</text>
  <text x="456" y="116" text-anchor="middle" font-family="monospace" font-size="26" fill="#e3b341" font-weight="bold">8 dias</text>

  <!-- Commits por linguagem (tabela) -->
  <text x="24" y="162" font-family="monospace" font-size="12" fill="#8b949e">Linguagens</text>
  
  <rect x="24" y="175" width="8" height="8" rx="2" fill="#e07b39"/>
  <text x="36" y="183" font-family="monospace" font-size="11" fill="#c9d1d9">Java</text>
  <text x="160" y="183" text-anchor="end" font-family="monospace" font-size="11" fill="#8b949e">85%</text>
  <rect x="24" y="187" width="8" height="8" rx="2" fill="#f0c020"/>
  <text x="36" y="195" font-family="monospace" font-size="11" fill="#c9d1d9">JavaScript</text>
  <text x="160" y="195" text-anchor="end" font-family="monospace" font-size="11" fill="#8b949e">7%</text>
  <rect x="24" y="199" width="8" height="8" rx="2" fill="#00599C"/>
  <text x="36" y="207" font-family="monospace" font-size="11" fill="#c9d1d9">C++</text>
  <text x="160" y="207" text-anchor="end" font-family="monospace" font-size="11" fill="#8b949e">4%</text>
  <rect x="24" y="211" width="8" height="8" rx="2" fill="#7F52FF"/>
  <text x="36" y="219" font-family="monospace" font-size="11" fill="#c9d1d9">PHP</text>
  <text x="160" y="219" text-anchor="end" font-family="monospace" font-size="11" fill="#8b949e">2%</text>
  <rect x="24" y="223" width="8" height="8" rx="2" fill="#73726c"/>
  <text x="36" y="231" font-family="monospace" font-size="11" fill="#c9d1d9">Hack</text>
  <text x="160" y="231" text-anchor="end" font-family="monospace" font-size="11" fill="#8b949e">1%</text>
  <rect x="24" y="235" width="8" height="8" rx="2" fill="#73726c"/>
  <text x="36" y="243" font-family="monospace" font-size="11" fill="#c9d1d9">HTML/CSS</text>
  <text x="160" y="243" text-anchor="end" font-family="monospace" font-size="11" fill="#8b949e">1%</text>

  <!-- Gráfico de pizza -->
  <text x="590" y="32" text-anchor="middle" font-family="monospace" font-size="12" fill="#8b949e">Distribuição</text>
  <path d="M590,130 L590.00,40.00 A90,90 0 1 1 517.19,77.10 Z"
      fill="#e07b39" stroke="#161b22" stroke-width="2"/><text x="616.56" y="186.12" text-anchor="middle"
        font-family="monospace" font-size="11" fill="#fff" font-weight="bold">85%</text><path d="M590,130 L517.19,77.10 A90,90 0 0 1 546.64,51.13 Z"
      fill="#f0c020" stroke="#161b22" stroke-width="2"/><text x="551.31" y="90.12" text-anchor="middle"
        font-family="monospace" font-size="11" fill="#fff" font-weight="bold">7%</text><path d="M590,130 L546.64,51.13 A90,90 0 0 1 567.62,42.83 Z"
      fill="#00599C" stroke="#161b22" stroke-width="2"/><path d="M590,130 L567.62,42.83 A90,90 0 0 1 578.72,40.71 Z"
      fill="#7F52FF" stroke="#161b22" stroke-width="2"/><path d="M590,130 L578.72,40.71 A90,90 0 0 1 584.35,40.18 Z"
      fill="#73726c" stroke="#161b22" stroke-width="2"/><path d="M590,130 L584.35,40.18 A90,90 0 0 1 590.00,40.00 Z"
      fill="#73726c" stroke="#161b22" stroke-width="2"/>
  
      <rect x="420" y="51" width="10" height="10" rx="2" fill="#e07b39"/>
      <text x="434" y="60" font-family="monospace" font-size="12" fill="#8b949e">Java 85%</text>
      <rect x="420" y="77" width="10" height="10" rx="2" fill="#f0c020"/>
      <text x="434" y="86" font-family="monospace" font-size="12" fill="#8b949e">JavaScript 7%</text>
      <rect x="420" y="103" width="10" height="10" rx="2" fill="#00599C"/>
      <text x="434" y="112" font-family="monospace" font-size="12" fill="#8b949e">C++ 4%</text>
      <rect x="530" y="51" width="10" height="10" rx="2" fill="#7F52FF"/>
      <text x="544" y="60" font-family="monospace" font-size="12" fill="#8b949e">PHP 2%</text>
      <rect x="530" y="77" width="10" height="10" rx="2" fill="#73726c"/>
      <text x="544" y="86" font-family="monospace" font-size="12" fill="#8b949e">Hack 1%</text>
      <rect x="530" y="103" width="10" height="10" rx="2" fill="#73726c"/>
      <text x="544" y="112" font-family="monospace" font-size="12" fill="#8b949e">HTML/CSS 1%</text>

  <!-- rodapé -->
  <text x="784" y="250" text-anchor="end" font-family="monospace" font-size="10" fill="#484f58">Atualizado automaticamente via GitHub Actions</text>
</svg>